<svg xmlns="http://www.w3.org/2000/svg" viewBox="0 0 900 520" font-family="-apple-system, Segoe UI, Roboto, sans-serif">
  <defs>
    <style><![CDATA[
      .bg { fill: #0e1114; }
      .alt { fill: #141820; }
      .panel { fill: #1a1f28; }
      .border { stroke: #252a34; stroke-width: 1; fill: none; }
      .fg { fill: #e5e7eb; }
      .dim { fill: #8b94a6; }
      .accent { fill: #7c9cff; }
      .success { fill: #5fd18f; }
      .warn { fill: #ffb860; }
      .danger { fill: #ff6b6b; }
      .sep { stroke: #252a34; stroke-width: 1; }
      text { font-size: 12px; }
      .h1 { font-size: 15px; font-weight: 600; fill: #e5e7eb; }
      .label { font-size: 10px; fill: #8b94a6; letter-spacing: 0.05em; }
      .big { font-size: 22px; font-weight: 600; fill: #e5e7eb; }
    ]]></style>
  </defs>

  <rect class="bg" width="900" height="520"/>

  <!-- ── Header ──────────────────────────────────────────── -->
  <rect class="alt" width="900" height="56"/>
  <line class="sep" x1="0" y1="56" x2="900" y2="56"/>
  <text class="h1" x="20" y="34">Admin</text>

  <!-- Tabs -->
  <rect class="panel" x="70" y="14" width="74" height="28" rx="6" stroke="#252a34"/>
  <text class="fg" x="83" y="32" font-size="11">Overview</text>
  <text class="dim" x="158" y="32" font-size="11">Usage</text>
  <text class="dim" x="202" y="32" font-size="11">Users</text>
  <text class="dim" x="246" y="32" font-size="11">Models</text>
  <text class="dim" x="296" y="32" font-size="11">Router</text>
  <text class="dim" x="342" y="32" font-size="11">VRAM</text>
  <text class="dim" x="384" y="32" font-size="11">Auth</text>
  <text class="dim" x="422" y="32" font-size="11">Tools</text>

  <!-- Window selector -->
  <text class="dim" x="640" y="32" font-size="11">1h</text>
  <rect class="panel" x="660" y="14" width="36" height="28" rx="6" stroke="#252a34"/>
  <text class="fg" x="672" y="32" font-size="11">24h</text>
  <text class="dim" x="708" y="32" font-size="11">7d</text>
  <text class="dim" x="738" y="32" font-size="11">30d</text>
  <rect class="panel" x="780" y="14" width="70" height="28" rx="6" stroke="#252a34"/>
  <text class="fg" x="796" y="32" font-size="11">← Chat</text>

  <!-- ── Stat cards ──────────────────────────────────────── -->
  <!-- Card 1: Requests -->
  <rect class="panel" x="20" y="80" width="200" height="110" rx="8" stroke="#252a34"/>
  <text class="label" x="36" y="102">REQUESTS</text>
  <text class="big" x="36" y="132">1.4k</text>
  <polyline fill="none" stroke="#7c9cff" stroke-width="1.5"
    points="36,175 50,168 64,170 78,160 92,158 106,150 120,152 134,140 148,146 162,138 176,130 190,134 204,126"/>
  <polygon fill="#7c9cff" opacity="0.15"
    points="36,180 36,175 50,168 64,170 78,160 92,158 106,150 120,152 134,140 148,146 162,138 176,130 190,134 204,126 204,180"/>

  <!-- Card 2: Tokens out -->
  <rect class="panel" x="232" y="80" width="200" height="110" rx="8" stroke="#252a34"/>
  <text class="label" x="248" y="102">TOKENS OUT</text>
  <text class="big" x="248" y="132">842k</text>
  <polyline fill="none" stroke="#5fd18f" stroke-width="1.5"
    points="248,172 262,170 276,162 290,168 304,154 318,156 332,142 346,148 360,132 374,134 388,126 402,130 416,120"/>
  <polygon fill="#5fd18f" opacity="0.15"
    points="248,180 248,172 262,170 276,162 290,168 304,154 318,156 332,142 346,148 360,132 374,134 388,126 402,130 416,120 416,180"/>

  <!-- Card 3: Avg latency -->
  <rect class="panel" x="444" y="80" width="200" height="110" rx="8" stroke="#252a34"/>
  <text class="label" x="460" y="102">AVG LATENCY</text>
  <text class="big" x="460" y="132">312 ms</text>
  <polyline fill="none" stroke="#ffb860" stroke-width="1.5"
    points="460,160 474,155 488,162 502,152 516,158 530,149 544,156 558,146 572,152 586,142 600,148 614,140 628,144"/>

  <!-- Card 4: Errors -->
  <rect class="panel" x="656" y="80" width="224" height="110" rx="8" stroke="#252a34"/>
  <text class="label" x="672" y="102">ERRORS</text>
  <text class="big" x="672" y="132">3</text>
  <polyline fill="none" stroke="#ff6b6b" stroke-width="1.5"
    points="672,170 688,172 704,171 720,170 736,166 752,170 768,172 784,170 800,168 816,170 832,172 848,170 864,170"/>

  <!-- ── By tier table ───────────────────────────────────── -->
  <text class="label" x="20" y="216">BY TIER</text>
  <rect class="panel" x="20" y="224" width="420" height="200" rx="8" stroke="#252a34"/>

  <!-- Table header -->
  <rect class="alt" x="20" y="224" width="420" height="28" rx="8"/>
  <line class="sep" x1="20" y1="252" x2="440" y2="252"/>
  <text class="label" x="36" y="243">TIER</text>
  <text class="label" x="200" y="243">REQ</text>
  <text class="label" x="260" y="243">TOK OUT</text>
  <text class="label" x="352" y="243">LATENCY</text>

  <!-- Rows -->
  <text fill="#7c9cff" x="36" y="272" font-size="11" font-family="ui-monospace,monospace">versatile</text>
  <text class="fg" x="200" y="272">821</text>
  <text class="fg" x="260" y="272">512k</text>
  <text class="fg" x="352" y="272">287 ms</text>
  <line class="sep" x1="20" y1="284" x2="440" y2="284"/>

  <text fill="#7c9cff" x="36" y="304" font-size="11" font-family="ui-monospace,monospace">fast</text>
  <text class="fg" x="200" y="304">341</text>
  <text class="fg" x="260" y="304">186k</text>
  <text class="fg" x="352" y="304">142 ms</text>
  <line class="sep" x1="20" y1="316" x2="440" y2="316"/>

  <text fill="#7c9cff" x="36" y="336" font-size="11" font-family="ui-monospace,monospace">coding</text>
  <text class="fg" x="200" y="336">188</text>
  <text class="fg" x="260" y="336">102k</text>
  <text class="fg" x="352" y="336">602 ms</text>
  <line class="sep" x1="20" y1="348" x2="440" y2="348"/>

  <text fill="#7c9cff" x="36" y="368" font-size="11" font-family="ui-monospace,monospace">vision</text>
  <text class="fg" x="200" y="368">32</text>
  <text class="fg" x="260" y="368">28k</text>
  <text class="fg" x="352" y="368">1.1 s</text>
  <line class="sep" x1="20" y1="380" x2="440" y2="380"/>

  <text fill="#7c9cff" x="36" y="400" font-size="11" font-family="ui-monospace,monospace">highest</text>
  <text class="fg" x="200" y="400">18</text>
  <text class="fg" x="260" y="400">14k</text>
  <text class="fg" x="352" y="400">2.3 s</text>

  <!-- ── VRAM card ──────────────────────────────────────── -->
  <text class="label" x="460" y="216">VRAM</text>
  <rect class="panel" x="460" y="224" width="420" height="200" rx="8" stroke="#252a34"/>

  <text class="label" x="476" y="248">TOTAL / USED</text>
  <text class="big" x="476" y="278">21.4 / 24.0 GB</text>

  <!-- VRAM bar -->
  <rect fill="#141820" x="476" y="294" width="388" height="12" rx="6" stroke="#252a34"/>
  <rect x="476" y="294" width="346" height="12" rx="6" fill="url(#vgrad)"/>
  <defs>
    <linearGradient id="vgrad" x1="0" x2="1">
      <stop offset="0%" stop-color="#7c9cff"/>
      <stop offset="80%" stop-color="#ffb860"/>
      <stop offset="100%" stop-color="#ff6b6b"/>
    </linearGradient>
  </defs>

  <!-- Loaded models mini-list -->
  <text class="label" x="476" y="326">LOADED</text>
  <text fill="#7c9cff" x="476" y="346" font-size="11" font-family="ui-monospace,monospace">tier.versatile</text>
  <text class="dim" x="620" y="346" font-size="11">ollama · 21 GB · refs 2</text>
  <line class="sep" x1="476" y1="354" x2="864" y2="354"/>
  <text fill="#7c9cff" x="476" y="374" font-size="11" font-family="ui-monospace,monospace">tier.vision</text>
  <text class="dim" x="620" y="374" font-size="11">llama.cpp · 0.4 GB · pinned</text>
  <line class="sep" x1="476" y1="382" x2="864" y2="382"/>
  <text fill="#7c9cff" x="476" y="402" font-size="11" font-family="ui-monospace,monospace">tier.fast</text>
  <text class="dim" x="620" y="402" font-size="11">ollama · idle · evictable</text>

  <!-- ── Totals row ─────────────────────────────────────── -->
  <text class="label" x="20" y="448">TOTALS</text>
  <rect class="panel" x="20" y="456" width="167" height="48" rx="8" stroke="#252a34"/>
  <text class="label" x="32" y="474">USERS</text>
  <text class="fg" x="32" y="494" font-size="18" font-weight="600">27</text>

  <rect class="panel" x="197" y="456" width="167" height="48" rx="8" stroke="#252a34"/>
  <text class="label" x="209" y="474">CONVERSATIONS</text>
  <text class="fg" x="209" y="494" font-size="18" font-weight="600">418</text>

  <rect class="panel" x="374" y="456" width="167" height="48" rx="8" stroke="#252a34"/>
  <text class="label" x="386" y="474">MESSAGES</text>
  <text class="fg" x="386" y="494" font-size="18" font-weight="600">6.2k</text>

  <rect class="panel" x="551" y="456" width="167" height="48" rx="8" stroke="#252a34"/>
  <text class="label" x="563" y="474">RAG DOCS</text>
  <text class="fg" x="563" y="494" font-size="18" font-weight="600">94 · 41 MB</text>

  <rect class="panel" x="728" y="456" width="152" height="48" rx="8" stroke="#252a34"/>
  <text class="label" x="740" y="474">MEMORIES</text>
  <text class="fg" x="740" y="494" font-size="18" font-weight="600">312</text>
</svg>
